<?xml version="1.0" standalone="no"?>
<!DOCTYPE svg PUBLIC "-//W3C//DTD SVG 20010904//EN"
 "http://www.w3.org/TR/2001/REC-SVG-20010904/DTD/svg10.dtd">
<svg version="1.0" xmlns="http://www.w3.org/2000/svg"
 width="172.000000pt" height="162.000000pt" viewBox="0 0 172.000000 162.000000"
 preserveAspectRatio="xMidYMid meet">

<g transform="translate(0.000000,162.000000) scale(0.100000,-0.100000)"
fill="#000000" stroke="none">
<path d="M0 810 l0 -810 860 0 860 0 0 810 0 810 -860 0 -860 0 0 -810z m650
455 l0 -125 -77 2 -78 2 73 3 72 4 0 119 c0 66 2 120 5 120 3 0 5 -56 5 -125z
m-177 -122 c-13 -2 -35 -2 -50 0 -16 2 -5 4 22 4 28 0 40 -2 28 -4z m885 -95
l-2 -103 -3 97 -4 97 -157 4 -157 3 163 2 162 2 -2 -102z m-565 -55 c-7 -2
-19 -2 -25 0 -7 3 -2 5 12 5 14 0 19 -2 13 -5z m34 -30 c-3 -10 -5 -4 -5 12 0
17 2 24 5 18 2 -7 2 -21 0 -30z m90 7 c1 -22 1 -22 -4 -2 -2 12 -11 22 -19 22
-17 0 -19 -36 -1 -43 9 -4 9 -6 -1 -6 -16 -1 -26 24 -18 45 9 24 41 12 43 -16z
m63 3 c0 -16 -4 -23 -8 -17 -4 6 -14 14 -22 17 -11 4 -10 6 5 7 l20 1 -20 9
c-19 8 -19 9 3 9 18 1 22 -4 22 -26z m55 6 c10 -30 2 -32 -12 -3 -6 13 -7 24
-3 24 5 0 12 -9 15 -21z m32 -16 c-3 -10 -5 -4 -5 12 0 17 2 24 5 18 2 -7 2
-21 0 -30z m-275 -15 c-9 -9 -15 -9 -24 1 -11 10 -10 11 5 6 10 -5 17 -2 17 6
0 7 3 9 7 6 4 -4 1 -13 -5 -19z m221 7 c-3 -9 -8 -14 -10 -11 -3 3 -2 9 2 15
9 16 15 13 8 -4z m567 -99 c0 -13 -31 -46 -43 -46 -6 0 -1 10 12 21 21 20 21
23 7 37 -15 15 -17 15 -33 -1 -11 -11 -13 -17 -5 -17 7 0 12 -4 12 -10 0 -5
-7 -10 -15 -10 -22 0 -18 30 7 57 l22 24 18 -23 c10 -13 18 -27 18 -32z m-779
-7 c-9 -23 -10 -22 -10 11 -1 23 2 31 9 24 7 -7 7 -19 1 -35z m81 11 c-2 -16
-5 -30 -7 -30 -2 0 -5 14 -7 30 -3 19 0 30 7 30 7 0 10 -11 7 -30z m51 9 c-4
-12 0 -25 8 -30 11 -7 10 -9 -3 -9 -13 0 -18 8 -18 30 0 17 4 30 9 30 5 0 7
-9 4 -21z m121 5 c3 -8 2 -12 -4 -9 -6 3 -10 10 -10 16 0 14 7 11 14 -7z m26
-15 c0 -16 -4 -28 -9 -25 -8 5 -3 56 5 56 2 0 4 -14 4 -31z m100 1 c0 -16 -2
-30 -4 -30 -2 0 -6 14 -8 30 -3 17 -1 30 4 30 4 0 8 -13 8 -30z m93 23 c-7 -2
-13 -13 -13 -23 0 -10 6 -21 13 -23 9 -4 9 -6 -1 -6 -7 -1 -15 6 -18 14 -8 20
2 45 18 44 10 0 10 -2 1 -6z m58 -34 c-9 -23 -10 -22 -10 11 -1 23 2 31 9 24
7 -7 7 -19 1 -35z m89 9 c0 -5 -7 -8 -15 -8 -8 0 -15 -5 -15 -12 0 -6 -2 -9
-5 -6 -3 3 0 17 6 32 9 19 15 23 21 14 4 -7 8 -16 8 -20z m-653 -10 c-3 -7 -5
-2 -5 12 0 14 2 19 5 13 2 -7 2 -19 0 -25z m243 6 c0 -23 -2 -24 -15 -10 -17
17 -20 30 -5 21 6 -3 10 -1 10 4 0 6 2 11 5 11 3 0 5 -12 5 -26z m125 5 c4
-11 4 -23 1 -26 -3 -4 -6 -1 -6 6 0 8 -7 11 -15 7 -17 -6 -18 -4 -9 18 8 22
21 20 29 -5z m225 -6 c0 -21 -3 -24 -9 -14 -5 8 -7 20 -4 28 8 21 13 15 13
-14z m114 -15 c7 -5 5 -8 -6 -8 -13 0 -18 7 -17 28 1 21 2 22 6 7 3 -11 10
-23 17 -27z m-644 12 c0 -5 -2 -10 -4 -10 -3 0 -8 5 -11 10 -3 6 -1 10 4 10 6
0 11 -4 11 -10z m530 -260 l0 -160 -282 2 -283 3 278 2 277 3 0 155 c0 85 2
155 5 155 3 0 5 -72 5 -160z m-370 140 c0 -5 -4 -10 -10 -10 -5 0 -10 5 -10
10 0 6 5 10 10 10 6 0 10 -4 10 -10z m-70 -80 c0 -5 -5 -10 -11 -10 -5 0 -7 5
-4 10 3 6 8 10 11 10 2 0 4 -4 4 -10z m43 -3 c3 -8 -1 -14 -8 -14 -7 0 -11 6
-8 14 3 7 6 13 8 13 2 0 5 -6 8 -13z m24 -19 c-3 -7 -5 -2 -5 12 0 14 2 19 5
13 2 -7 2 -19 0 -25z m40 10 c-3 -8 -6 -5 -6 6 -1 11 2 17 5 13 3 -3 4 -12 1
-19z m-380 -25 c-3 -10 -5 -4 -5 12 0 17 2 24 5 18 2 -7 2 -21 0 -30z m227
-64 c-8 -14 -24 -10 -24 6 0 9 6 12 15 9 8 -4 12 -10 9 -15z m23 -1 c-3 -8 -6
-5 -6 6 -1 11 2 17 5 13 3 -3 4 -12 1 -19z m93 2 c0 -5 -4 -10 -10 -10 -5 0
-10 5 -10 10 0 6 5 10 10 10 6 0 10 -4 10 -10z m40 0 c0 -5 -4 -10 -10 -10 -5
0 -10 5 -10 10 0 6 5 10 10 10 6 0 10 -4 10 -10z"/>
</g>
</svg>
